<svg viewBox="295 -5 645 585" fill="none" xmlns="http://www.w3.org/2000/svg">
<path d="M621.147 349.886C627.465 347.132 658.288 334.202 685.708 331.688C689.803 331.245 693.837 331.022 697.719 331.086C702.622 321.338 707.171 310.558 711.143 298.66C738.731 216.02 636.644 74.6519 619.58 51.848C598.991 79.6644 502.514 216.157 529.424 296.769C533.659 309.456 538.564 320.869 543.867 331.118C574.69 329.64 615.266 347.251 621.147 349.886Z" fill="#00A10D"/>
<path d="M660.005 404.278C660.005 404.278 682.773 360.986 698.044 331.344C697.896 331.337 697.747 331.33 697.598 331.324C697.307 331.902 697.015 332.475 696.721 333.045C663.948 331.533 618.655 352.104 618.655 352.104C618.655 352.104 575.867 332.294 542.823 332.936C557.904 361.872 580.229 399.363 580.229 399.363C580.229 399.363 601.943 438.433 619.979 466.478C637.675 438.854 660.005 404.278 660.005 404.278Z" fill="#00A10D"/>
<path d="M539.839 331.419C528.928 332.045 517.299 333.496 504.986 336.01C417.949 353.781 345.439 518.819 336.424 540.092C359.356 542.922 538.543 562.649 597.453 496.16C606.322 486.15 613.755 476.195 619.979 466.478C601.943 438.433 580.229 399.363 580.229 399.363C580.229 399.363 557.904 361.872 542.823 332.936C542.095 332.95 541.371 332.974 540.654 333.008C540.381 332.482 540.11 331.952 539.839 331.419Z" fill="#00A10D"/>
<path d="M619.979 466.478C626.22 476.184 633.667 486.138 642.547 496.16C701.457 562.649 880.644 542.922 903.576 540.092C894.561 518.819 822.052 353.781 735.014 336.01C721.909 333.334 709.572 331.876 698.044 331.344C682.773 360.986 660.005 404.278 660.005 404.278C660.005 404.278 637.675 438.854 619.979 466.478Z" fill="#00A10D"/>
<path d="M541.977 331.307C536.674 321.058 531.769 309.645 527.534 296.958C499.406 212.699 606.084 67.3876 620 48.944M541.977 331.307C575.284 329.71 619.979 350.403 619.979 350.403C619.979 350.403 620.384 350.218 621.147 349.886M541.977 331.307C542.256 331.846 542.538 332.389 542.823 332.936M541.977 331.307C541.267 331.341 540.555 331.378 539.839 331.419M620 48.944C633.916 67.3876 740.595 212.699 712.466 296.958C708.226 309.66 703.329 321.086 698.044 331.344M620 48.944C620.962 47.6687 621.481 47 621.481 47M620 48.944C619.038 47.6687 618.519 47 618.519 47M698.044 331.344C709.572 331.876 721.909 333.334 735.014 336.01C822.052 353.781 894.561 518.819 903.576 540.092M698.044 331.344C682.773 360.986 660.005 404.278 660.005 404.278C660.005 404.278 637.675 438.854 619.979 466.478M698.044 331.344C697.896 331.337 697.747 331.33 697.598 331.324M619.979 466.478C626.22 476.184 633.667 486.138 642.547 496.16C701.457 562.649 880.644 542.922 903.576 540.092M619.979 466.478C613.755 476.195 606.322 486.15 597.453 496.16C538.543 562.649 359.356 542.922 336.424 540.092M619.979 466.478C601.943 438.433 580.229 399.363 580.229 399.363C580.229 399.363 557.904 361.872 542.823 332.936M903.576 540.092C904.199 541.563 904.519 542.347 904.519 542.347M903.576 540.092C905.161 539.897 906 539.782 906 539.782M336.424 540.092C345.439 518.819 417.949 353.781 504.986 336.01C517.299 333.496 528.928 332.045 539.839 331.419M336.424 540.092C334.839 539.897 334 539.782 334 539.782M336.424 540.092C335.801 541.563 335.481 542.347 335.481 542.347M621.147 349.886C627.465 347.132 658.288 334.202 685.708 331.688M621.147 349.886C615.266 347.251 574.69 329.64 543.867 331.118C538.564 320.869 533.659 309.456 529.424 296.769C502.514 216.157 598.991 79.6644 619.58 51.848M621.147 349.886C621.621 350.099 621.869 350.214 621.869 350.214C621.869 350.214 655.453 334.96 685.708 331.688M685.708 331.688C689.803 331.245 693.837 331.022 697.719 331.086M685.708 331.688C689.777 331.315 693.771 331.172 697.598 331.324M697.719 331.086C702.622 321.338 707.171 310.558 711.143 298.66C738.731 216.02 636.644 74.6519 619.58 51.848M697.719 331.086C698.463 331.098 699.202 331.121 699.935 331.155C705.22 320.897 710.117 309.471 714.357 296.769C742.485 212.51 635.807 67.1986 621.89 48.755C621.288 49.5534 620.512 50.5895 619.58 51.848M697.719 331.086C697.679 331.165 697.638 331.245 697.598 331.324M619.58 51.848C619.246 51.4012 618.944 50.9998 618.677 50.6454C604.76 69.089 498.082 214.4 526.21 298.66C530.228 310.694 534.848 321.584 539.839 331.419M697.598 331.324C697.307 331.902 697.015 332.475 696.721 333.045C663.948 331.533 618.655 352.104 618.655 352.104C618.655 352.104 575.867 332.294 542.823 332.936M542.823 332.936C542.095 332.95 541.371 332.974 540.654 333.008C540.381 332.482 540.11 331.952 539.839 331.419" stroke="#FBFF00" stroke-width="20"/>
<path d="M333.055 523.565C344.85 523.565 354.411 533.127 354.411 544.921C354.411 556.715 344.85 566.276 333.055 566.276C321.26 566.276 311.698 556.715 311.698 544.921C311.698 533.127 321.26 523.565 333.055 523.565Z" stroke="#FFF260" stroke-width="14"/>
<path d="M333.055 523.565C344.85 523.565 354.411 533.127 354.411 544.921C354.411 556.715 344.85 566.276 333.055 566.276C321.26 566.276 311.698 556.715 311.698 544.921C311.698 533.127 321.26 523.565 333.055 523.565Z" stroke="#FBFF00" stroke-width="14"/>
<path d="M906.045 523.565C917.84 523.565 927.401 533.127 927.401 544.921C927.401 556.715 917.84 566.276 906.045 566.276C894.25 566.276 884.689 556.715 884.688 544.921C884.688 533.127 894.25 523.565 906.045 523.565Z" stroke="#FBFF00" stroke-width="14"/>
<path d="M620.356 7C632.152 7 641.713 16.5615 641.713 28.3555C641.713 40.1494 632.152 49.7109 620.356 49.7109C608.561 49.7109 599 40.1494 599 28.3555C599 16.5615 608.561 7.00004 620.356 7Z" stroke="#FBFF00" stroke-width="14"/>
</svg>