<svg width="1297" height="923" viewBox="0 0 1297 923" fill="none" xmlns="http://www.w3.org/2000/svg">
<path d="M621.147 349.886C627.465 347.132 658.288 334.202 685.708 331.688C689.803 331.245 693.837 331.022 697.719 331.086C702.622 321.338 707.171 310.558 711.143 298.66C738.731 216.02 636.644 74.6519 619.58 51.848C598.991 79.6644 502.514 216.157 529.424 296.769C533.659 309.456 538.564 320.869 543.867 331.118C574.69 329.64 615.266 347.251 621.147 349.886Z" fill="#00A10D"/>
<path d="M660.005 404.278C660.005 404.278 682.773 360.986 698.044 331.344C697.896 331.337 697.747 331.33 697.598 331.324C697.307 331.902 697.015 332.475 696.721 333.045C663.948 331.533 618.655 352.104 618.655 352.104C618.655 352.104 575.867 332.294 542.823 332.936C557.904 361.872 580.229 399.363 580.229 399.363C580.229 399.363 601.943 438.433 619.979 466.478C637.675 438.854 660.005 404.278 660.005 404.278Z" fill="#00A10D"/>
<path d="M539.839 331.419C528.928 332.045 517.299 333.496 504.986 336.01C417.949 353.781 345.439 518.819 336.424 540.092C359.356 542.922 538.543 562.649 597.453 496.16C606.322 486.15 613.755 476.195 619.979 466.478C601.943 438.433 580.229 399.363 580.229 399.363C580.229 399.363 557.904 361.872 542.823 332.936C542.095 332.95 541.371 332.974 540.654 333.008C540.381 332.482 540.11 331.952 539.839 331.419Z" fill="#00A10D"/>
<path d="M619.979 466.478C626.22 476.184 633.667 486.138 642.547 496.16C701.457 562.649 880.644 542.922 903.576 540.092C894.561 518.819 822.052 353.781 735.014 336.01C721.909 333.334 709.572 331.876 698.044 331.344C682.773 360.986 660.005 404.278 660.005 404.278C660.005 404.278 637.675 438.854 619.979 466.478Z" fill="#00A10D"/>
<path d="M541.977 331.307C536.674 321.058 531.769 309.645 527.534 296.958C499.406 212.699 606.084 67.3876 620 48.944M541.977 331.307C575.284 329.71 619.979 350.403 619.979 350.403C619.979 350.403 620.384 350.218 621.147 349.886M541.977 331.307C542.256 331.846 542.538 332.389 542.823 332.936M541.977 331.307C541.267 331.341 540.555 331.378 539.839 331.419M620 48.944C633.916 67.3876 740.595 212.699 712.466 296.958C708.226 309.66 703.329 321.086 698.044 331.344M620 48.944C620.962 47.6687 621.481 47 621.481 47M620 48.944C619.038 47.6687 618.519 47 618.519 47M698.044 331.344C709.572 331.876 721.909 333.334 735.014 336.01C822.052 353.781 894.561 518.819 903.576 540.092M698.044 331.344C682.773 360.986 660.005 404.278 660.005 404.278C660.005 404.278 637.675 438.854 619.979 466.478M698.044 331.344C697.896 331.337 697.747 331.33 697.598 331.324M619.979 466.478C626.22 476.184 633.667 486.138 642.547 496.16C701.457 562.649 880.644 542.922 903.576 540.092M619.979 466.478C613.755 476.195 606.322 486.15 597.453 496.16C538.543 562.649 359.356 542.922 336.424 540.092M619.979 466.478C601.943 438.433 580.229 399.363 580.229 399.363C580.229 399.363 557.904 361.872 542.823 332.936M903.576 540.092C904.199 541.563 904.519 542.347 904.519 542.347M903.576 540.092C905.161 539.897 906 539.782 906 539.782M336.424 540.092C345.439 518.819 417.949 353.781 504.986 336.01C517.299 333.496 528.928 332.045 539.839 331.419M336.424 540.092C334.839 539.897 334 539.782 334 539.782M336.424 540.092C335.801 541.563 335.481 542.347 335.481 542.347M621.147 349.886C627.465 347.132 658.288 334.202 685.708 331.688M621.147 349.886C615.266 347.251 574.69 329.64 543.867 331.118C538.564 320.869 533.659 309.456 529.424 296.769C502.514 216.157 598.991 79.6644 619.58 51.848M621.147 349.886C621.621 350.099 621.869 350.214 621.869 350.214C621.869 350.214 655.453 334.96 685.708 331.688M685.708 331.688C689.803 331.245 693.837 331.022 697.719 331.086M685.708 331.688C689.777 331.315 693.771 331.172 697.598 331.324M697.719 331.086C702.622 321.338 707.171 310.558 711.143 298.66C738.731 216.02 636.644 74.6519 619.58 51.848M697.719 331.086C698.463 331.098 699.202 331.121 699.935 331.155C705.22 320.897 710.117 309.471 714.357 296.769C742.485 212.51 635.807 67.1986 621.89 48.755C621.288 49.5534 620.512 50.5895 619.58 51.848M697.719 331.086C697.679 331.165 697.638 331.245 697.598 331.324M619.58 51.848C619.246 51.4012 618.944 50.9998 618.677 50.6454C604.76 69.089 498.082 214.4 526.21 298.66C530.228 310.694 534.848 321.584 539.839 331.419M697.598 331.324C697.307 331.902 697.015 332.475 696.721 333.045C663.948 331.533 618.655 352.104 618.655 352.104C618.655 352.104 575.867 332.294 542.823 332.936M542.823 332.936C542.095 332.95 541.371 332.974 540.654 333.008C540.381 332.482 540.11 331.952 539.839 331.419" stroke="#FBFF00" stroke-width="20"/>
<path d="M333.055 523.565C344.85 523.565 354.411 533.127 354.411 544.921C354.411 556.715 344.85 566.276 333.055 566.276C321.26 566.276 311.698 556.715 311.698 544.921C311.698 533.127 321.26 523.565 333.055 523.565Z" stroke="#FFF260" stroke-width="14"/>
<path d="M333.055 523.565C344.85 523.565 354.411 533.127 354.411 544.921C354.411 556.715 344.85 566.276 333.055 566.276C321.26 566.276 311.698 556.715 311.698 544.921C311.698 533.127 321.26 523.565 333.055 523.565Z" stroke="#FBFF00" stroke-width="14"/>
<path d="M906.045 523.565C917.84 523.565 927.401 533.127 927.401 544.921C927.401 556.715 917.84 566.276 906.045 566.276C894.25 566.276 884.689 556.715 884.688 544.921C884.688 533.127 894.25 523.565 906.045 523.565Z" stroke="#FBFF00" stroke-width="14"/>
<path d="M620.356 7C632.152 7 641.713 16.5615 641.713 28.3555C641.713 40.1494 632.152 49.7109 620.356 49.7109C608.561 49.7109 599 40.1494 599 28.3555C599 16.5615 608.561 7.00004 620.356 7Z" stroke="#FBFF00" stroke-width="14"/>
<path d="M154.454 791.885C130.28 791.885 108.477 787.678 89.046 779.262C69.768 770.847 53.856 758.837 41.31 743.231C28.917 727.472 21.0375 708.806 17.6715 687.233L75.0465 678.512C79.9425 698.096 89.964 713.243 105.111 723.953C120.411 734.663 138.006 740.018 157.896 740.018C169.677 740.018 180.77 738.182 191.174 734.51C201.578 730.838 209.993 725.483 216.419 718.445C222.998 711.407 226.287 702.762 226.287 692.511C226.287 687.921 225.522 683.714 223.992 679.889C222.462 675.911 220.167 672.392 217.107 669.332C214.2 666.272 210.375 663.518 205.632 661.07C201.042 658.469 195.687 656.25 189.567 654.414L104.193 629.169C96.849 627.027 88.893 624.197 80.325 620.678C71.91 617.006 63.8775 612.033 56.2275 605.76C48.7305 599.334 42.534 591.225 37.638 581.433C32.895 571.488 30.5235 559.248 30.5235 544.713C30.5235 523.446 35.8785 505.622 46.5885 491.24C57.4515 476.705 71.9865 465.842 90.1935 458.651C108.554 451.46 128.903 447.941 151.241 448.094C173.885 448.247 194.081 452.148 211.829 459.798C229.577 467.295 244.418 478.235 256.352 492.617C268.286 506.999 276.701 524.364 281.597 544.713L222.156 555.041C219.708 543.413 214.965 533.544 207.927 525.435C201.042 517.173 192.551 510.9 182.453 506.616C172.508 502.332 161.874 500.037 150.552 499.731C139.536 499.578 129.285 501.261 119.799 504.78C110.466 508.146 102.893 513.042 97.0785 519.468C91.4175 525.894 88.587 533.391 88.587 541.959C88.587 550.068 91.035 556.724 95.931 561.926C100.827 566.975 106.871 571.029 114.062 574.089C121.406 576.996 128.826 579.444 136.323 581.433L195.534 597.957C203.643 600.099 212.747 603.006 222.845 606.678C232.943 610.35 242.658 615.476 251.991 622.055C261.324 628.634 268.974 637.278 274.941 647.988C281.061 658.698 284.121 672.315 284.121 688.839C284.121 705.975 280.526 721.046 273.335 734.051C266.297 746.903 256.734 757.613 244.647 766.181C232.56 774.749 218.714 781.175 203.108 785.459C187.655 789.743 171.437 791.885 154.454 791.885ZM376.059 789.232C365.139 789.232 356.13 787.412 349.032 783.771C341.934 780.131 336.292 775.49 332.106 769.848C327.92 764.206 324.826 758.2 322.824 751.83C320.822 745.46 319.503 739.454 318.866 733.812C318.32 728.079 318.047 723.438 318.047 719.889V637.58H351.353V708.56C351.353 713.11 351.671 718.251 352.308 723.984C352.945 729.626 354.401 735.086 356.676 740.364C359.042 745.551 362.5 749.828 367.05 753.195C371.691 756.562 377.925 758.246 385.751 758.246C389.937 758.246 394.077 757.563 398.172 756.198C402.267 754.833 405.953 752.513 409.229 749.237C412.596 745.87 415.28 741.274 417.283 735.45C419.284 729.626 420.285 722.255 420.285 713.337L439.805 721.664C439.805 734.222 437.348 745.597 432.434 755.789C427.611 765.981 420.467 774.125 411.004 780.222C401.539 786.229 389.891 789.232 376.059 789.232ZM424.244 785V739.272H420.285V637.58H453.319V785H424.244ZM562.512 789.095C548.134 789.095 536.077 785.683 526.34 778.857C516.603 772.032 509.277 762.75 504.363 751.011C499.449 739.181 496.992 725.941 496.992 711.29C496.992 696.457 499.449 683.171 504.363 671.432C509.277 659.693 516.466 650.456 525.93 643.722C535.485 636.897 547.27 633.485 561.284 633.485C575.207 633.485 587.264 636.897 597.456 643.722C607.739 650.456 615.702 659.693 621.344 671.432C626.986 683.08 629.807 696.366 629.807 711.29C629.807 726.032 627.031 739.272 621.48 751.011C615.929 762.75 608.103 772.032 598.002 778.857C587.901 785.683 576.071 789.095 562.512 789.095ZM491.396 785V588.44H524.565V681.533H520.47V785H491.396ZM557.462 759.611C566.016 759.611 573.068 757.472 578.619 753.195C584.17 748.918 588.265 743.14 590.904 735.86C593.634 728.489 594.999 720.299 594.999 711.29C594.999 702.372 593.634 694.273 590.904 686.993C588.174 679.622 583.943 673.798 578.21 669.521C572.477 665.153 565.197 662.969 556.37 662.969C547.998 662.969 541.173 665.016 535.895 669.111C530.617 673.115 526.704 678.757 524.156 686.037C521.699 693.226 520.47 701.644 520.47 711.29C520.47 720.845 521.699 729.262 524.156 736.542C526.704 743.822 530.662 749.51 536.031 753.605C541.491 757.609 548.635 759.611 557.462 759.611ZM701.117 789.095C690.47 789.095 681.461 787.093 674.09 783.089C666.719 778.994 661.123 773.579 657.301 766.845C653.57 760.111 651.704 752.695 651.704 744.596C651.704 737.498 652.887 731.128 655.253 725.486C657.619 719.753 661.259 714.839 666.173 710.744C671.087 706.558 677.457 703.145 685.283 700.506C691.198 698.595 698.114 696.866 706.031 695.319C714.039 693.772 722.684 692.362 731.966 691.088C741.339 689.723 751.122 688.267 761.314 686.72L749.575 693.408C749.666 683.216 747.391 675.709 742.75 670.886C738.109 666.063 730.283 663.651 719.272 663.651C712.629 663.651 706.213 665.198 700.025 668.292C693.837 671.386 689.515 676.71 687.058 684.263L657.028 674.844C660.668 662.377 667.584 652.367 677.776 644.814C688.059 637.261 701.891 633.485 719.272 633.485C732.376 633.485 743.887 635.623 753.806 639.9C763.816 644.177 771.233 651.184 776.056 660.921C778.695 666.108 780.287 671.432 780.833 676.892C781.379 682.261 781.652 688.13 781.652 694.5V785H752.851V753.059L757.628 758.246C750.985 768.893 743.205 776.719 734.287 781.724C725.46 786.638 714.403 789.095 701.117 789.095ZM707.669 762.887C715.131 762.887 721.501 761.567 726.779 758.928C732.057 756.289 736.243 753.059 739.337 749.237C742.522 745.415 744.661 741.82 745.753 738.453C747.482 734.267 748.437 729.49 748.619 724.121C748.892 718.661 749.029 714.247 749.029 710.88L759.13 713.883C749.211 715.43 740.702 716.795 733.604 717.978C726.506 719.161 720.409 720.299 715.313 721.391C710.217 722.392 705.713 723.529 701.8 724.803C697.978 726.168 694.747 727.761 692.108 729.581C689.469 731.401 687.422 733.494 685.966 735.86C684.601 738.226 683.918 741.001 683.918 744.186C683.918 747.826 684.828 751.057 686.648 753.878C688.468 756.608 691.107 758.792 694.565 760.43C698.114 762.068 702.482 762.887 707.669 762.887ZM816.916 785L817.189 588.44H850.495V708.56L904.413 637.58H945.499L888.306 711.29L950.413 785H906.87L850.495 714.02V785H816.916Z" fill="#00A10D"/>
<path d="M973.137 785V531.56H1015.55V785H973.137ZM1068.27 785V531.56H1111.22L1228.78 710.2V531.56H1271.73V785H1228.78L1111.22 606.36V785H1068.27Z" fill="#FBFF00"/>
</svg>
